<svg width="20" height="20" viewBox="0 0 20 20" fill="none" xmlns="http://www.w3.org/2000/svg">
    <path d="M18.5938 18.418L14.0234 13.8672C14.6354 13.1641 15.1172 12.3633 15.4688 11.4648C15.8203 10.5664 15.9961 9.61589 15.9961 8.61328C15.9961 7.51953 15.7878 6.48438 15.3711 5.50781C14.9414 4.54427 14.3652 3.69792 13.6426 2.96875C12.9199 2.23958 12.0768 1.66667 11.1133 1.25C10.1367 0.833334 9.09505 0.625 7.98828 0.625C6.89453 0.625 5.85938 0.833334 4.88281 1.25C3.91927 1.66667 3.07292 2.23958 2.34375 2.96875C1.61458 3.69792 1.04167 4.54427 0.625 5.50781C0.208333 6.48438 0 7.51953 0 8.61328C0 9.72005 0.208333 10.7552 0.625 11.7188C1.04167 12.6953 1.61458 13.5449 2.34375 14.2676C3.07292 14.9902 3.91927 15.5599 4.88281 15.9766C5.85938 16.4062 6.89453 16.6211 7.98828 16.6211C8.99089 16.6211 9.94141 16.4453 10.8398 16.0938C11.7383 15.7422 12.5391 15.2604 13.2422 14.6484L17.793 19.1992C17.8451 19.2643 17.9069 19.3099 17.9785 19.3359C18.0501 19.362 18.1185 19.375 18.1836 19.375C18.2617 19.375 18.3366 19.362 18.4082 19.3359C18.4798 19.3099 18.5417 19.2643 18.5938 19.1992C18.6979 19.0951 18.75 18.9648 18.75 18.8086C18.75 18.6523 18.6979 18.5221 18.5938 18.418ZM1.11328 8.61328C1.11328 7.67578 1.29557 6.78385 1.66016 5.9375C2.02474 5.10417 2.51628 4.37825 3.13477 3.75977C3.75326 3.14128 4.47917 2.64974 5.3125 2.28516C6.14583 1.92057 7.03776 1.73828 7.98828 1.73828C8.9388 1.73828 9.83073 1.92057 10.6641 2.28516C11.4974 2.64974 12.2266 3.14128 12.8516 3.75977C13.4766 4.37825 13.9648 5.11068 14.3164 5.95703C14.681 6.79036 14.8633 7.67578 14.8633 8.61328C14.8633 9.5638 14.681 10.4557 14.3164 11.2891C13.9648 12.1224 13.4766 12.8516 12.8516 13.4766C12.2266 14.1016 11.4974 14.5964 10.6641 14.9609C9.83073 15.3125 8.9388 15.4883 7.98828 15.4883C7.03776 15.4883 6.14583 15.3125 5.3125 14.9609C4.47917 14.5964 3.75326 14.1016 3.13477 13.4766C2.51628 12.8516 2.02474 12.1224 1.66016 11.2891C1.29557 10.4557 1.11328 9.5638 1.11328 8.61328Z" fill="#676B70"/>
</svg>
