<svg width="59" height="56" viewBox="0 0 59 56" fill="none" xmlns="http://www.w3.org/2000/svg">
    <g opacity="0.7">
        <path fill-rule="evenodd" clip-rule="evenodd" d="M1.29842 6.55671e-08C2.01556 2.93554e-08 2.59692 0.515179 2.59692 1.15068L2.59693 54.8493C2.59693 55.4848 2.01557 56 1.29842 56C0.581277 56 -8.30159e-05 55.4848 -8.304e-05 54.8493L-8.50719e-05 1.15069C-8.50959e-05 0.515179 0.581275 1.01779e-07 1.29842 6.55671e-08Z" fill="#053D6E"/>
        <path fill-rule="evenodd" clip-rule="evenodd" d="M58 27.9365C58 28.5239 57.5069 29 56.8987 29L1.10144 29C0.493229 29 0.000179291 28.5239 0.000179291 27.9365C0.000179291 27.3492 0.493229 26.873 1.10144 26.873L56.8987 26.873C57.5069 26.873 58 27.3492 58 27.9365Z" fill="#053D6E"/>
    </g>
    <ellipse cx="26" cy="28" rx="1" ry="5" fill="#4C759A"/>
    <rect x="35" y="10" width="18" height="2" rx="1" fill="#E28777"/>
    <rect x="1" y="41" width="18" height="2" rx="1" fill="#43C69A"/>
    <rect x="25.1404" y="28.0339" width="20.8711" height="2" rx="1" transform="rotate(-59.7761 25.1404 28.0339)" fill="#E28777"/>
    <rect x="17" y="42.2749" width="18.1845" height="2" rx="1" transform="rotate(-59.7761 17 42.2749)" fill="#43C69A"/>
</svg>
