<svg width="59" height="56" viewBox="0 0 59 56" fill="none" xmlns="http://www.w3.org/2000/svg">
    <rect width="18" height="2" rx="1" transform="matrix(1 0 0 -1 35 49.2817)" fill="#43C69A"/>
    <rect width="18" height="2" rx="1" transform="matrix(1 0 0 -1 1 18.2817)" fill="#E28777"/>
    <rect width="20.8711" height="2" rx="1" transform="matrix(0.503381 0.864065 0.864065 -0.503381 25.1404 31.2478)" fill="#43C69A"/>
    <rect width="18.1845" height="2" rx="1" transform="matrix(0.503381 0.864065 0.864065 -0.503381 17 17.0068)" fill="#E28777"/>
    <path fill-rule="evenodd" clip-rule="evenodd" d="M1.29842 6.55671e-08C2.01556 2.93554e-08 2.59692 0.515179 2.59692 1.15068L2.59693 54.8493C2.59693 55.4848 2.01557 56 1.29842 56C0.581277 56 -8.30159e-05 55.4848 -8.304e-05 54.8493L-8.50719e-05 1.15069C-8.50959e-05 0.515179 0.581275 1.01779e-07 1.29842 6.55671e-08Z" fill="#053D6E"/>
    <path fill-rule="evenodd" clip-rule="evenodd" d="M58 33.3203C58 33.9076 57.5069 34.3838 56.8987 34.3838L1.10144 34.3838C0.493229 34.3838 0.000179291 33.9076 0.000179291 33.3203C0.000179291 32.7329 0.493229 32.2568 1.10144 32.2568L56.8987 32.2568C57.5069 32.2568 58 32.7329 58 33.3203Z" fill="#053D6E"/>
    <ellipse cx="27" cy="33" rx="1" ry="5" fill="#4C759A"/>
</svg>
