<svg width="59" height="56" viewBox="0 0 59 56" fill="none" xmlns="http://www.w3.org/2000/svg">
    <rect x="1.5" y="47" width="30" height="2" rx="1" fill="#E28777"/>
    <rect x="37.6406" y="34.0339" width="20.8711" height="2" rx="1" transform="rotate(-59.7761 37.6406 34.0339)" fill="#43C69A"/>
    <rect x="29.5" y="48.2749" width="18.1845" height="2" rx="1" transform="rotate(-59.7761 29.5 48.2749)" fill="#E28777"/>
    <g opacity="0.7">
        <path fill-rule="evenodd" clip-rule="evenodd" d="M1.79842 6.55671e-08C2.51556 2.93554e-08 3.09692 0.515179 3.09692 1.15068L3.09693 54.8493C3.09693 55.4848 2.51557 56 1.79842 56C1.08128 56 0.499917 55.4848 0.499917 54.8493L0.499915 1.15069C0.499915 0.515179 1.08127 1.01779e-07 1.79842 6.55671e-08Z" fill="#053D6E"/>
        <path fill-rule="evenodd" clip-rule="evenodd" d="M58.5 33.3203C58.5 33.9076 58.0069 34.3838 57.3987 34.3838L1.60144 34.3838C0.993229 34.3838 0.500179 33.9076 0.500179 33.3203C0.500179 32.7329 0.993229 32.2568 1.60144 32.2568L57.3987 32.2568C58.0069 32.2568 58.5 32.7329 58.5 33.3203Z" fill="#053D6E"/>
    </g>
    <ellipse cx="39.5" cy="33" rx="1" ry="5" fill="#4C759A"/>
</svg>
