<svg width="59" height="56" viewBox="0 0 59 56" fill="none" xmlns="http://www.w3.org/2000/svg">
    <g opacity="0.7">
        <path fill-rule="evenodd" clip-rule="evenodd" d="M1.79842 6.55671e-08C2.51556 2.93554e-08 3.09692 0.515179 3.09692 1.15068L3.09693 54.8493C3.09693 55.4848 2.51557 56 1.79842 56C1.08128 56 0.499917 55.4848 0.499917 54.8493L0.499915 1.15069C0.499915 0.515179 1.08127 1.01779e-07 1.79842 6.55671e-08Z" fill="#053D6E"/>
        <path fill-rule="evenodd" clip-rule="evenodd" d="M58.5 27.9365C58.5 28.5239 58.0069 29 57.3987 29L1.60144 29C0.993229 29 0.500179 28.5239 0.500179 27.9365C0.500179 27.3492 0.993229 26.873 1.60144 26.873L57.3987 26.873C58.0069 26.873 58.5 27.3492 58.5 27.9365Z" fill="#053D6E"/>
    </g>
    <rect x="20.9319" y="17.1829" width="26.0813" height="1.83566" rx="0.91783" transform="rotate(130.22 20.9319 17.1829)" fill="#E28777"/>
    <rect width="26.0813" height="1.83566" rx="0.91783" transform="matrix(0.645724 0.763571 0.763571 -0.645724 35.8938 17.1829)" fill="#E28777"/>
    <rect x="21.137" y="17.1332" width="10.9599" height="2" rx="1" transform="rotate(130.22 21.137 17.1332)" fill="#43C69A"/>
    <rect width="10.9599" height="2" rx="1" transform="matrix(0.645724 0.763571 0.763571 -0.645724 35.6887 17.1332)" fill="#43C69A"/>
    <rect x="19.4998" y="15.9999" width="18.1845" height="2" rx="1" fill="#43C69A"/>
</svg>
